<svg width="512" height="512" viewBox="0 0 512 512" fill="none" xmlns="http://www.w3.org/2000/svg">
  <!-- Background circle -->
  <circle cx="256" cy="256" r="240" fill="#16a34a"/>
  
  <!-- IGA letters stylized -->
  <g fill="white">
    <!-- I -->
    <rect x="100" y="160" width="40" height="192" rx="8"/>
    
    <!-- G -->
    <path d="M200 256c0-53.02 42.98-96 96-96 26.51 0 50.51 10.75 67.88 28.12l-28.28 28.28C323.75 204.55 308.25 196 296 196c-33.14 0-60 26.86-60 60s26.86 60 60 60c16 0 30.5-6.27 41.27-16.47V280h-41.27v-36h81.27c1.31 5.88 2 12.03 2 18.4 0 53.02-42.98 96-96 96s-96-42.98-96-96z"/>
    
    <!-- A -->
    <path d="M412 352h-44l-12-36h-60l-12 36h-44l60-192h52l60 192zm-68-72l-18-54-18 54h36z"/>
  </g>
  
  <!-- Prep underline accent -->
  <rect x="100" y="380" width="312" height="8" rx="4" fill="#22c55e"/>
</svg>
